<svg width="20" height="20" viewBox="0 0 20 20" fill="none" xmlns="http://www.w3.org/2000/svg">
<g clip-path="url(#clip0_41_4404)">
<path d="M10.0003 18.3337C5.39783 18.3337 1.66699 14.6028 1.66699 10.0003C1.66699 5.39783 5.39783 1.66699 10.0003 1.66699C14.6028 1.66699 18.3337 5.39783 18.3337 10.0003C18.3337 14.6028 14.6028 18.3337 10.0003 18.3337ZM9.16699 12.5003V14.167H10.8337V12.5003H9.16699ZM10.8337 11.1295C11.5034 10.9276 12.0783 10.492 12.4538 9.90178C12.8293 9.3116 12.9802 8.6062 12.8793 7.91405C12.7783 7.22189 12.4321 6.58903 11.9037 6.13071C11.3753 5.67239 10.6998 5.41911 10.0003 5.41699C9.32604 5.41694 8.67255 5.65045 8.15099 6.07782C7.62943 6.50519 7.272 7.10002 7.13949 7.76116L8.77449 8.08866C8.82089 7.85652 8.93226 7.64233 9.09563 7.47101C9.25901 7.29969 9.46767 7.17828 9.69735 7.12091C9.92702 7.06355 10.1683 7.07258 10.393 7.14697C10.6178 7.22135 10.8168 7.35802 10.9669 7.54109C11.117 7.72415 11.212 7.94607 11.2409 8.18103C11.2698 8.41599 11.2314 8.65433 11.1301 8.86831C11.0289 9.0823 10.8689 9.26313 10.6689 9.38977C10.4689 9.51641 10.2371 9.58364 10.0003 9.58366C9.77931 9.58366 9.56735 9.67146 9.41107 9.82774C9.25479 9.98402 9.16699 10.196 9.16699 10.417V11.667H10.8337V11.1295Z" fill="white"/>
</g>
<defs>
<clipPath id="clip0_41_4404">
<rect width="20" height="20" fill="white"/>
</clipPath>
</defs>
</svg>
