<svg width="20" height="20" viewBox="0 0 20 20" fill="none" xmlns="http://www.w3.org/2000/svg">
<path d="M8.09668 2.42383C8.16728 2.43665 8.19501 2.46358 8.20312 2.47168C8.20453 2.47308 8.22739 2.49473 8.23828 2.55664C8.24946 2.62065 8.25896 2.79185 8.12109 3.1084L8.12012 3.11035C7.70296 4.07447 7.5 5.09301 7.5 6.1416V6.14551C7.50938 8.04131 8.253 9.78884 9.44824 11.123V11.124C10.8018 12.6433 12.7479 13.6312 14.9014 13.7236C15.4882 13.7513 16.0682 13.7043 16.6309 13.6045H16.6318C16.9925 13.5401 17.1682 13.5894 17.2324 13.6162C17.2921 13.6412 17.3019 13.6657 17.2969 13.6572L17.3018 13.666L17.3076 13.6748C17.31 13.6785 17.3261 13.7057 17.3223 13.7705C17.3179 13.8446 17.2831 14.0274 17.0664 14.3281C15.5585 16.3726 13.1692 17.5751 10.6172 17.5752C10.5112 17.5752 10.4009 17.5681 10.2637 17.5596H10.2549L10.2471 17.5586L9.96387 17.542C9.30607 17.4908 8.66623 17.3543 8.05469 17.1416H8.05371C5.11946 16.1252 2.91746 13.4292 2.68945 10.3066H2.69043C2.46268 6.97166 4.38283 3.85274 7.49512 2.54199L7.49609 2.54297C7.83624 2.40178 8.02206 2.41029 8.09668 2.42383Z" stroke="white" stroke-width="1.5"/>
</svg>
